<?xml version="1.0" standalone="no"?><!DOCTYPE svg PUBLIC "-//W3C//DTD SVG 1.1//EN" "http://www.w3.org/Graphics/SVG/1.1/DTD/svg11.dtd"><svg t="1672822634560" class="icon" viewBox="0 0 1024 1024" version="1.1" xmlns="http://www.w3.org/2000/svg" p-id="2713" xmlns:xlink="http://www.w3.org/1999/xlink" width="200" height="200"><path d="M213.174787 960.51336c-86.421369 0-156.645167-70.223798-156.645168-156.594182V376.782973c0-86.370383 70.223798-156.645167 156.645168-156.645167h19.0168a14.259101 14.259101 0 0 0 13.122412-8.713617l41.98052-100.825431a99.43681 99.43681 0 0 1 92.007842-61.305237h265.827313a99.387824 99.387824 0 0 1 91.956855 61.356223l41.980521 100.722459a14.140134 14.140134 0 0 0 13.173398 8.765603h18.965814c86.319397 0 156.594181 70.275784 156.594182 156.645167V803.919178c0 86.370383-70.274784 156.594181-156.594182 156.594182z m-71.197532-583.730387V803.919178a71.20553 71.20553 0 0 0 71.197532 71.197532h598.029476a71.271512 71.271512 0 0 0 71.199531-71.197532V376.782973a71.304503 71.304503 0 0 0-71.197532-71.197532h-18.966813a99.4728 99.4728 0 0 1-92.059828-61.356222L658.1991 143.608732a14.144132 14.144132 0 0 0-13.070426-8.918561h-265.827313a14.313086 14.313086 0 0 0-13.173398 8.867575l-41.927535 100.722459a99.489796 99.489796 0 0 1-92.008841 61.305236h-19.0168a71.238521 71.238521 0 0 0-71.197532 71.197532z m142.395064 185.094389c0-125.634647 102.157066-227.843699 227.791713-227.843699S740.006731 436.242715 740.006731 561.877362 637.797679 789.669075 512.164032 789.669075 284.372319 687.511009 284.372319 561.877362z m85.447635 0a142.461046 142.461046 0 0 0 142.344078 142.344077c78.578514 0 142.395064-63.81655 142.395064-142.344077a142.477041 142.477041 0 0 0-142.395064-142.396064c-78.527528 0-142.344078 63.81655-142.344078 142.396064z" p-id="2714"></path></svg>